<?xml version="1.0" encoding="UTF-8"?>
<svg xmlns="http://www.w3.org/2000/svg" xmlns:xlink="http://www.w3.org/1999/xlink" width="144px" height="147px" viewBox="0 0 144 147" version="1.1">
	<g transform="translate(20,20)">
		<g id="surface1">
<path style=" stroke:none;fill-rule:nonzero;fill:rgb(75.294119%,74.901962%,74.117649%);fill-opacity:1;" d="M 24.640625 1.828125 C 22.390625 2.980469 18.910156 6.3125 18.539062 7.675781 C 18.410156 8.164062 18.21875 8.671875 18.113281 8.796875 C 18.003906 8.925781 17.960938 9.074219 18.015625 9.125 C 18.070312 9.179688 17.921875 9.835938 17.683594 10.585938 C 17.441406 11.335938 17.207031 12.183594 17.140625 12.476562 C 17.089844 12.761719 16.84375 13.671875 16.597656 14.488281 C 16.339844 15.300781 16.105469 16.15625 16.0625 16.390625 C 16.03125 16.625 15.9375 16.949219 15.863281 17.128906 C 15.785156 17.300781 15.679688 17.679688 15.636719 17.976562 C 15.585938 18.261719 15.445312 18.609375 15.316406 18.769531 C 15.199219 18.917969 15.148438 19.035156 15.222656 19.035156 C 15.285156 19.035156 15.199219 19.488281 15.019531 20.039062 C 14.847656 20.589844 14.65625 21.277344 14.59375 21.570312 C 14.539062 21.859375 14.304688 22.714844 14.089844 23.476562 C 13.738281 24.703125 13.472656 25.707031 13.324219 26.332031 C 12.980469 27.789062 12.0625 30.835938 11.902344 31.027344 C 11.785156 31.164062 11.742188 31.351562 11.796875 31.449219 C 11.851562 31.542969 11.796875 31.851562 11.679688 32.144531 C 11.550781 32.433594 11.425781 32.867188 11.382812 33.097656 C 11.347656 33.332031 11.222656 33.847656 11.105469 34.261719 C 10.976562 34.664062 10.558594 36.152344 10.15625 37.570312 C 9.28125 40.660156 9.398438 40.4375 6.792969 44.03125 C 1.664062 51.128906 2.496094 58.105469 8.980469 62.433594 C 11.59375 64.167969 17.097656 64.832031 19.371094 63.679688 C 19.574219 63.574219 20.265625 63.226562 20.90625 62.90625 C 23.050781 61.828125 25.246094 59.503906 28.105469 55.292969 C 28.820312 54.246094 29.417969 53.792969 34.238281 50.714844 C 37.171875 48.84375 40.0625 46.992188 40.660156 46.601562 C 41.257812 46.210938 41.855469 45.894531 41.972656 45.894531 C 42.101562 45.894531 42.238281 45.808594 42.273438 45.703125 C 42.355469 45.46875 48.339844 41.664062 48.617188 41.664062 C 48.726562 41.664062 48.851562 41.589844 48.886719 41.484375 C 48.929688 41.386719 50.644531 40.214844 52.691406 38.882812 C 57.183594 35.953125 58.441406 34.96875 58.921875 34.027344 C 60.609375 30.707031 60.703125 30.421875 60.769531 28.203125 L 60.84375 26.054688 L 60.128906 25.832031 C 57.972656 25.15625 55.605469 24.933594 54.324219 25.273438 C 53.75 25.433594 53.726562 25.410156 53.878906 24.933594 C 54.207031 23.941406 54.039062 21.253906 53.589844 20.25 C 53.066406 19.078125 52.609375 18.960938 49.707031 19.246094 C 48.597656 19.351562 47.605469 19.445312 47.507812 19.445312 C 47.414062 19.457031 47.347656 18.621094 47.359375 17.605469 C 47.402344 13.925781 46.761719 11.378906 45.683594 10.871094 C 44.757812 10.4375 42.304688 10.628906 40.257812 11.304688 C 39.765625 11.460938 39.167969 11.632812 38.933594 11.675781 C 38.699219 11.707031 38.453125 11.800781 38.398438 11.875 C 37.835938 12.617188 37.164062 12.265625 37.011719 11.175781 C 36.757812 9.222656 36.019531 6.980469 35.550781 6.726562 C 34.871094 6.367188 32.351562 6.671875 30.996094 7.285156 C 30.335938 7.582031 29.78125 7.804688 29.761719 7.773438 C 29.738281 7.742188 29.601562 7.242188 29.449219 6.660156 C 28.789062 4.144531 26.996094 1.257812 26.101562 1.28125 C 25.886719 1.28125 25.226562 1.535156 24.640625 1.828125 Z M 26.378906 4.558594 C 27.359375 6.671875 27.808594 9.441406 27.316406 10.308594 C 27.199219 10.511719 25.367188 14.816406 23.230469 19.878906 C 21.109375 24.933594 19.308594 29.175781 19.230469 29.292969 C 19.167969 29.40625 19.082031 29.597656 19.0625 29.714844 C 19.019531 29.925781 17.324219 33.964844 16.757812 35.191406 C 16.585938 35.550781 15.902344 37.179688 15.242188 38.808594 C 13.769531 42.433594 13.960938 42.246094 12.628906 41.316406 C 11.359375 40.4375 11.382812 40.53125 11.957031 38.597656 C 12.191406 37.78125 12.4375 36.882812 12.5 36.597656 C 12.554688 36.324219 12.660156 36.007812 12.714844 35.910156 C 12.777344 35.816406 12.875 35.476562 12.9375 35.160156 C 12.992188 34.84375 13.417969 33.246094 13.886719 31.617188 C 14.355469 29.988281 14.785156 28.464844 14.835938 28.234375 C 14.878906 28 15.125 27.144531 15.359375 26.332031 C 15.605469 25.515625 15.851562 24.617188 15.914062 24.332031 C 15.96875 24.058594 16.074219 23.738281 16.128906 23.644531 C 16.191406 23.550781 16.289062 23.222656 16.339844 22.914062 C 16.394531 22.609375 16.832031 21.023438 17.300781 19.371094 C 17.769531 17.734375 18.207031 16.15625 18.261719 15.871094 C 18.324219 15.597656 18.421875 15.28125 18.476562 15.183594 C 18.539062 15.089844 18.625 14.824219 18.667969 14.59375 C 18.753906 14.148438 19.636719 10.839844 20.203125 8.882812 C 20.566406 7.625 22.476562 5.507812 24.535156 4.082031 C 25.792969 3.214844 25.75 3.203125 26.378906 4.558594 Z M 34.539062 9.253906 C 35.199219 11.21875 35.105469 13.980469 34.335938 15.355469 C 33.941406 16.042969 32.800781 18.070312 31.785156 19.878906 C 30.773438 21.675781 29.75 23.484375 29.515625 23.898438 C 29.28125 24.300781 28.289062 26.066406 27.308594 27.8125 C 26.324219 29.554688 25.441406 31.046875 25.332031 31.109375 C 25.226562 31.183594 25.152344 31.300781 25.164062 31.386719 C 25.183594 31.511719 24.394531 32.972656 22.398438 36.480469 C 20.789062 39.316406 19.273438 42 18.539062 43.324219 C 17.609375 44.996094 17.601562 45.003906 16.542969 44.128906 L 15.703125 43.417969 L 16.191406 42.277344 C 16.46875 41.652344 16.8125 40.847656 16.96875 40.5 C 17.121094 40.152344 17.941406 38.195312 18.785156 36.164062 C 19.625 34.125 20.492188 32.082031 20.691406 31.617188 C 20.90625 31.152344 21.386719 30.011719 21.761719 29.078125 C 22.433594 27.441406 23.679688 24.46875 24.4375 22.734375 C 24.640625 22.269531 24.832031 21.792969 24.863281 21.675781 C 24.929688 21.457031 26.039062 18.84375 26.667969 17.449219 C 26.878906 16.984375 27.347656 15.863281 27.710938 14.964844 C 28.074219 14.0625 28.449219 13.164062 28.542969 12.953125 C 28.652344 12.753906 29.003906 12.023438 29.332031 11.347656 C 30.582031 8.789062 33.929688 7.445312 34.539062 9.253906 Z M 44.820312 13.058594 C 45.109375 13.808594 45.332031 18.039062 45.140625 19.289062 C 44.992188 20.269531 44.917969 20.367188 42.132812 23.304688 C 41.546875 23.917969 39.09375 26.519531 36.691406 29.078125 C 34.292969 31.640625 31.703125 34.398438 30.921875 35.214844 C 26.785156 39.570312 25.960938 40.4375 24.425781 42.085938 C 23.5 43.070312 22.238281 44.402344 21.609375 45.035156 C 20.992188 45.683594 20.480469 46.273438 20.480469 46.359375 C 20.480469 46.65625 19.617188 46.539062 19.5 46.230469 C 19.402344 45.988281 20.523438 43.914062 24.640625 36.695312 C 24.90625 36.226562 26.273438 33.796875 27.679688 31.300781 C 29.078125 28.792969 30.441406 26.371094 30.710938 25.90625 C 31.796875 23.992188 34.59375 19.117188 34.773438 18.824219 C 34.878906 18.644531 35.425781 17.660156 35.988281 16.632812 C 36.917969 14.941406 37.738281 14.011719 38.464844 13.863281 C 38.601562 13.832031 39.007812 13.695312 39.359375 13.546875 C 42.058594 12.445312 44.5 12.222656 44.820312 13.058594 Z M 51.925781 21.488281 C 52 21.667969 52.054688 22.363281 52.054688 23.03125 C 52.054688 25.367188 51.863281 25.589844 43.285156 32.78125 C 39.0625 36.324219 35.433594 39.390625 35.242188 39.582031 C 35.039062 39.769531 33.867188 40.773438 32.628906 41.800781 C 31.390625 42.828125 28.917969 44.890625 27.148438 46.371094 C 23.574219 49.351562 23.648438 49.320312 22.601562 48.453125 L 21.867188 47.828125 L 22.71875 46.917969 C 23.1875 46.421875 24.160156 45.386719 24.875 44.625 C 25.578125 43.875 27.019531 42.339844 28.054688 41.242188 C 29.097656 40.128906 30.144531 39.03125 30.390625 38.789062 C 30.625 38.542969 31.839844 37.265625 33.066406 35.941406 C 34.304688 34.621094 36.085938 32.726562 37.035156 31.734375 C 37.984375 30.738281 40.234375 28.371094 42.039062 26.480469 C 45.910156 22.398438 46.847656 21.65625 48.289062 21.507812 C 48.851562 21.445312 49.367188 21.339844 49.441406 21.277344 C 49.738281 20.980469 51.796875 21.148438 51.925781 21.488281 Z M 58.121094 27.472656 C 58.1875 27.578125 58.433594 27.621094 58.667969 27.558594 C 58.910156 27.492188 59.09375 27.546875 59.09375 27.683594 C 59.09375 28.246094 58.121094 30.878906 57.375 32.359375 L 56.574219 33.945312 L 53.089844 36.152344 C 51.167969 37.371094 48.691406 38.945312 47.574219 39.664062 C 46.464844 40.382812 44.734375 41.496094 43.734375 42.140625 C 36.757812 46.589844 34.582031 47.976562 33.984375 48.335938 C 33.332031 48.726562 28.660156 51.71875 28.085938 52.109375 C 27.808594 52.289062 25.601562 50.90625 25.601562 50.546875 C 25.601562 50.449219 25.910156 50.125 26.292969 49.816406 C 26.675781 49.511719 27.179688 49.085938 27.414062 48.886719 C 28.535156 47.902344 32.734375 44.347656 34.453125 42.933594 C 35.507812 42.054688 36.425781 41.304688 36.480469 41.242188 C 36.683594 41.039062 42.335938 36.261719 43.625 35.203125 C 45.046875 34.039062 44.917969 34.144531 46.625 32.675781 C 49.332031 30.328125 52.820312 27.683594 53.429688 27.503906 C 54.292969 27.261719 57.972656 27.230469 58.121094 27.472656 Z M 11.902344 43.195312 C 12.574219 43.683594 13.269531 44.253906 13.460938 44.457031 C 13.652344 44.667969 13.84375 44.78125 13.898438 44.730469 C 13.953125 44.675781 14.292969 44.898438 14.644531 45.214844 C 15.007812 45.523438 15.53125 45.925781 15.808594 46.082031 C 16.191406 46.304688 25.953125 53.445312 26.433594 53.84375 C 26.582031 53.972656 24.042969 57.101562 23.785156 57.101562 C 23.636719 57.101562 23.273438 56.910156 22.964844 56.667969 C 22.667969 56.4375 21.089844 55.285156 19.476562 54.109375 C 17.855469 52.9375 16.5 51.890625 16.457031 51.785156 C 16.425781 51.6875 16.296875 51.605469 16.191406 51.605469 C 16.011719 51.605469 9.003906 46.589844 8.351562 45.988281 C 8.097656 45.753906 10.207031 42.296875 10.601562 42.296875 C 10.644531 42.296875 11.230469 42.699219 11.902344 43.195312 Z M 9.601562 49.550781 C 10.367188 50.089844 13.386719 52.269531 16.332031 54.394531 C 19.273438 56.519531 21.910156 58.425781 22.199219 58.625 L 22.71875 58.984375 L 22.1875 59.429688 C 18.785156 62.273438 14.6875 62.929688 10.976562 61.246094 C 10.335938 60.960938 9.8125 60.625 9.8125 60.496094 C 9.8125 60.371094 9.683594 60.273438 9.523438 60.273438 C 9.121094 60.273438 7.457031 58.464844 6.773438 57.3125 C 5.238281 54.679688 5.140625 50.84375 6.539062 48.15625 L 6.847656 47.554688 L 7.53125 48.070312 C 7.902344 48.355469 8.84375 49.023438 9.601562 49.550781 Z M 9.601562 49.550781 "/>
			</g>
		</g>
	</svg>
